<svg xmlns="http://www.w3.org/2000/svg" xmlns:xlink="http://www.w3.org/1999/xlink" width="300" zoomAndPan="magnify" viewBox="0 0 224.87999 225" height="300" preserveAspectRatio="xMidYMid meet" version="1.0"><defs><clipPath id="5f0933a4a1"><path d="M 0 0.0585938 L 224.761719 0.0585938 L 224.761719 224.9375 L 0 224.9375 Z M 0 0.0585938 " clip-rule="nonzero"/></clipPath></defs><g clip-path="url(#5f0933a4a1)"><path fill="#fbf8f9" d="M 112.441406 0.0585938 C 50.417969 0.0585938 0 50.476562 0 112.5 C 0 174.523438 50.417969 224.941406 112.441406 224.941406 C 174.464844 224.941406 224.878906 174.523438 224.878906 112.5 C 224.878906 50.476562 174.464844 0.0585938 112.441406 0.0585938 Z M 167.136719 121.496094 L 94.378906 171.621094 C 92.492188 172.855469 90.316406 173.507812 88.210938 173.507812 C 86.46875 173.507812 84.730469 173.074219 83.132812 172.273438 C 79.507812 170.386719 77.328125 166.6875 77.328125 162.625 L 77.328125 62.375 C 77.328125 58.3125 79.507812 54.609375 83.132812 52.726562 C 86.6875 50.839844 91.039062 51.128906 94.378906 53.378906 L 167.136719 103.503906 C 170.109375 105.535156 171.851562 108.945312 171.851562 112.5 C 171.851562 116.054688 170.109375 119.464844 167.136719 121.496094 Z M 167.136719 121.496094 " fill-opacity="1" fill-rule="nonzero"/></g><path fill="#fbf8f9" d="M 99.09375 141.953125 L 141.746094 112.5 L 99.09375 83.046875 Z M 99.09375 141.953125 " fill-opacity="1" fill-rule="nonzero"/></svg>