<svg xmlns="http://www.w3.org/2000/svg" xmlns:xlink="http://www.w3.org/1999/xlink" width="300" zoomAndPan="magnify" viewBox="0 0 224.87999 225" height="300" preserveAspectRatio="xMidYMid meet" version="1.0"><defs><clipPath id="186b808c89"><path d="M 0 0.0585938 L 224.761719 0.0585938 L 224.761719 224.9375 L 0 224.9375 Z M 0 0.0585938 " clip-rule="nonzero"/></clipPath></defs><g clip-path="url(#186b808c89)"><path fill="#444444" d="M 112.441406 0.0585938 C 50.339844 0.0585938 0 50.398438 0 112.5 C 0 174.601562 50.339844 224.941406 112.441406 224.941406 C 174.539062 224.941406 224.878906 174.601562 224.878906 112.5 C 224.878906 50.398438 174.539062 0.0585938 112.441406 0.0585938 Z M 133.917969 178.773438 C 130.476562 179.433594 129.25 177.320312 129.25 175.5 C 129.25 173.261719 129.339844 165.929688 129.339844 156.824219 C 129.339844 150.472656 127.167969 146.320312 124.742188 144.21875 C 139.839844 142.53125 155.707031 136.777344 155.707031 110.621094 C 155.707031 103.191406 153.085938 97.105469 148.734375 92.351562 C 149.433594 90.628906 151.761719 83.703125 148.0625 74.335938 C 148.0625 74.335938 142.382812 72.503906 129.429688 81.320312 C 124.011719 79.8125 118.207031 79.058594 112.453125 79.027344 C 106.683594 79.058594 100.882812 79.8125 95.472656 81.320312 C 82.519531 72.515625 76.832031 74.335938 76.832031 74.335938 C 73.140625 83.714844 75.46875 90.628906 76.167969 92.351562 C 71.828125 97.105469 69.183594 103.191406 69.183594 110.621094 C 69.183594 136.707031 85.015625 142.542969 100.070312 144.265625 C 98.136719 145.960938 96.382812 148.964844 95.765625 153.359375 C 91.898438 155.105469 82.082031 158.105469 76.03125 147.703125 C 76.03125 147.703125 72.457031 141.171875 65.652344 140.6875 C 65.652344 140.6875 59.03125 140.597656 65.191406 144.828125 C 65.191406 144.828125 69.632812 146.917969 72.714844 154.789062 C 72.714844 154.789062 76.695312 168.035156 95.5625 163.917969 C 95.597656 169.597656 95.652344 173.882812 95.652344 175.5 C 95.652344 177.300781 94.414062 179.402344 91.019531 178.785156 C 64.066406 169.777344 44.640625 144.265625 44.640625 114.1875 C 44.640625 76.574219 74.996094 46.105469 112.453125 46.105469 C 149.90625 46.105469 180.265625 76.585938 180.265625 114.1875 C 180.265625 144.253906 160.855469 169.753906 133.925781 178.773438 Z M 133.917969 178.773438 " fill-opacity="1" fill-rule="nonzero"/></g></svg>