<svg xmlns="http://www.w3.org/2000/svg" xmlns:xlink="http://www.w3.org/1999/xlink" width="300" zoomAndPan="magnify" viewBox="0 0 224.87999 225" height="300" preserveAspectRatio="xMidYMid meet" version="1.0"><defs><clipPath id="4599ae1df2"><path d="M 1.226562 0.0585938 L 223.859375 0.0585938 L 223.859375 224.9375 L 1.226562 224.9375 Z M 1.226562 0.0585938 " clip-rule="nonzero"/></clipPath></defs><g clip-path="url(#4599ae1df2)"><path fill="#444444" d="M 112.351562 0.0742188 C 53.769531 0.0742188 5.785156 45.609375 1.226562 103.472656 L 60.992188 128.390625 C 66.054688 124.898438 72.175781 122.855469 78.757812 122.855469 C 79.347656 122.855469 79.933594 122.875 80.511719 122.910156 L 107.097656 84.0625 L 107.097656 83.519531 C 107.097656 60.144531 125.960938 41.121094 149.144531 41.121094 C 172.332031 41.121094 191.195312 60.144531 191.195312 83.519531 C 191.195312 106.886719 172.332031 125.921875 149.144531 125.921875 C 148.824219 125.921875 148.511719 125.914062 148.1875 125.90625 L 110.28125 153.171875 C 110.308594 153.675781 110.316406 154.179688 110.316406 154.671875 C 110.316406 172.222656 96.15625 186.507812 78.757812 186.507812 C 63.480469 186.507812 50.699219 175.507812 47.808594 160.945312 L 5.0625 143.125 C 18.300781 190.320312 61.304688 224.917969 112.351562 224.917969 C 173.941406 224.917969 223.859375 174.578125 223.859375 112.492188 C 223.859375 50.402344 173.941406 0.0742188 112.351562 0.0742188 Z M 71.105469 170.652344 L 57.410156 164.941406 C 59.832031 170.042969 64.035156 174.308594 69.613281 176.644531 C 81.664062 181.710938 95.558594 175.949219 100.585938 163.796875 C 103.011719 157.90625 103.027344 151.414062 100.621094 145.515625 C 98.21875 139.617188 93.671875 135.011719 87.832031 132.5625 C 82.03125 130.136719 75.824219 130.222656 70.367188 132.300781 L 84.519531 138.199219 C 93.410156 141.9375 97.609375 152.222656 93.90625 161.1875 C 90.210938 170.148438 79.996094 174.386719 71.105469 170.652344 Z M 177.167969 83.515625 C 177.167969 67.941406 164.59375 55.261719 149.148438 55.261719 C 133.695312 55.261719 121.128906 67.941406 121.128906 83.515625 C 121.128906 99.09375 133.695312 111.761719 149.148438 111.761719 C 164.59375 111.761719 177.167969 99.09375 177.167969 83.515625 Z M 128.144531 83.46875 C 128.144531 71.75 137.574219 62.25 149.191406 62.25 C 160.820312 62.25 170.246094 71.75 170.246094 83.46875 C 170.246094 95.191406 160.820312 104.6875 149.191406 104.6875 C 137.574219 104.6875 128.144531 95.191406 128.144531 83.46875 Z M 128.144531 83.46875 " fill-opacity="1" fill-rule="nonzero"/></g></svg>